<svg width="30" height="20" viewBox="0 0 30 20" fill="none" xmlns="http://www.w3.org/2000/svg">
<path d="M3.42704 3.26495C2.46643 3.26495 1.68717 3.97531 1.68717 4.85158V8.04462C0.720008 8.26131 0 9.05121 0 9.99983C0 10.9487 0.719947 11.7386 1.68717 11.9553V15.1479C1.68717 16.0243 2.46643 16.7345 3.42704 16.7345C4.38758 16.7345 5.16697 16.0243 5.16697 15.1479V4.85158C5.16697 3.97536 4.38758 3.26495 3.42704 3.26495Z" fill="black"/>
<path d="M20.6677 0C19.241 0 18.0844 1.05465 18.0844 2.35574V7.64417H17.2934H13.55H12.3374L11.9156 7.63499V2.35574C11.9156 1.05471 10.759 0 9.33211 0C7.90538 0 6.74866 1.05465 6.74866 2.35574V17.6443C6.74866 18.9453 7.90538 20 9.33211 20C10.759 20 11.9156 18.9453 11.9156 17.6443V12.3677C11.9156 12.3677 12.1937 12.3558 12.3374 12.3558H13.55H17.2934H18.0844V17.6443C18.0844 18.9453 19.241 20 20.6677 20C22.0947 20 23.2512 18.9453 23.2512 17.6443V2.35569C23.2513 1.05471 22.0947 0 20.6677 0Z" fill="black"/>
<path d="M28.3127 8.04462V4.85158C28.3127 3.97536 27.5334 3.26495 26.5729 3.26495C25.6123 3.26495 24.833 3.97531 24.833 4.85158V15.1479C24.833 16.0243 25.6123 16.7345 26.5729 16.7345C27.5334 16.7345 28.3127 16.0243 28.3127 15.1479V11.9553C29.28 11.7386 30 10.9487 30 9.99983C29.9999 9.05115 29.28 8.26131 28.3127 8.04462Z" fill="black"/>
</svg>
