<svg width="20" height="14" viewBox="0 0 20 14" fill="none" xmlns="http://www.w3.org/2000/svg">
<path d="M2.28469 2.17664C1.64429 2.17664 1.12478 2.6502 1.12478 3.23439V5.36308C0.480006 5.50754 0 6.03414 0 6.66655C0 7.29915 0.479964 7.82572 1.12478 7.97018V10.0986C1.12478 10.6829 1.64429 11.1563 2.28469 11.1563C2.92506 11.1563 3.44465 10.6829 3.44465 10.0986V3.23439C3.44465 2.65024 2.92506 2.17664 2.28469 2.17664Z" fill="black"/>
<path d="M13.7787 0C12.8275 0 12.0564 0.703102 12.0564 1.5705V5.09611H11.5291H9.03351H8.22513L7.94391 5.08999V1.5705C7.94391 0.70314 7.17281 0 6.22157 0C5.27042 0 4.49927 0.703102 4.49927 1.5705V11.7628C4.49927 12.6302 5.27042 13.3333 6.22157 13.3333C7.17285 13.3333 7.94391 12.6302 7.94391 11.7628V8.24514C7.94391 8.24514 8.12932 8.23722 8.22513 8.23722H9.03351H11.5291H12.0564V11.7628C12.0564 12.6302 12.8275 13.3333 13.7787 13.3333C14.7299 13.3333 15.501 12.6302 15.501 11.7628V1.57046C15.501 0.70314 14.7299 0 13.7787 0Z" fill="black"/>
<path d="M18.8751 5.36308V3.23439C18.8751 2.65024 18.3556 2.17664 17.7153 2.17664C17.0748 2.17664 16.5553 2.6502 16.5553 3.23439V10.0986C16.5553 10.6829 17.0748 11.1563 17.7153 11.1563C18.3556 11.1563 18.8751 10.6829 18.8751 10.0986V7.97018C19.5199 7.82572 19.9999 7.29915 19.9999 6.66655C19.9999 6.0341 19.5199 5.50754 18.8751 5.36308Z" fill="black"/>
</svg>
