<svg width="144" height="144" viewBox="0 0 144 144" fill="none" xmlns="http://www.w3.org/2000/svg">
<path d="M75.9537 77.6526C80.3295 75.4371 81.7577 68.9217 79.1569 63.1333C76.5514 57.3256 70.8889 54.4024 66.5131 56.6179C62.1373 58.8333 60.7091 65.3488 63.3145 71.1565C65.9199 76.9545 71.5825 79.8778 75.9537 77.6526Z" fill="url(#paint0_radial_460_398)"/>
<path d="M89.0675 42.9954C93.2745 70.9723 74.5347 91.944 74.5347 91.944C74.5347 91.944 59.0848 64.1708 33.1037 55.7889C83.6422 95.0514 54.8778 144 54.8778 144H69.5064C69.5064 144 103.514 81.652 89.0675 42.9954Z" fill="url(#paint1_radial_460_398)"/>
<path d="M60.5449 46.1902C60.262 45.7442 59.9745 45.2691 59.6871 44.7455C58.3501 42.2925 57.7387 40.014 57.7387 40.014C57.7387 40.014 59.281 41.7302 60.6179 44.1686C60.8962 44.6873 61.1381 45.1964 61.3616 45.6811C61.5715 44.5128 61.8179 42.1131 60.7502 40.1352C59.2764 37.4253 55.8816 36.5818 55.8816 36.5818C55.8816 36.5818 54.8687 40.1304 56.3425 42.8452C57.4102 44.8231 59.4909 45.7975 60.5449 46.1902Z" fill="url(#paint2_radial_460_398)"/>
<path d="M94.0958 66.7692C94.9445 67.5448 96.7787 68.9701 98.9187 68.9701C101.866 68.9701 104.248 66.2601 104.248 66.2601C104.248 66.2601 101.871 63.5551 98.9187 63.5551C96.7787 63.5551 94.9445 64.9803 94.0958 65.756C94.6022 65.7172 95.1315 65.6881 95.7019 65.6881C98.3666 65.6881 100.543 66.2505 100.543 66.2505C100.543 66.2505 98.3666 66.8225 95.7019 66.8176C95.127 66.8419 94.6022 66.8079 94.0958 66.7692Z" fill="url(#paint3_radial_460_398)"/>
<path d="M83.3912 44.1783C84.719 41.7253 86.2704 40.014 86.2704 40.014C86.2704 40.014 85.6544 42.3022 84.3175 44.7552C84.0346 45.2691 83.7471 45.7538 83.4551 46.1998C84.5228 45.8072 86.5989 44.8279 87.6621 42.8645C89.1405 40.1449 88.1366 36.5914 88.1366 36.5914C88.1366 36.5914 84.7327 37.4495 83.2635 40.1498C82.1957 42.118 82.433 44.5128 82.6475 45.6957C82.8574 45.206 83.1038 44.697 83.3912 44.1783Z" fill="url(#paint4_radial_460_398)"/>
<path d="M70.8114 29.4118C70.8114 23.1047 72.0023 18 72.0023 18C72.0023 18 73.1977 23.1144 73.1977 29.4118C73.1977 30.7449 73.1384 32.0054 73.0472 33.1979C74.6807 31.1958 77.6602 26.857 77.6602 21.7958C77.6602 14.8343 72.0023 9.1963 72.0023 9.1963C72.0023 9.1963 66.3443 14.8343 66.3443 21.7958C66.3443 26.857 69.3239 31.1909 70.9528 33.1979C70.8707 32.0054 70.8114 30.7498 70.8114 29.4118Z" fill="url(#paint5_radial_460_398)"/>
<path d="M32.9303 49.2394C37.0597 51.77 42.0789 51.1931 44.5292 50.6938C43.5162 50.1896 42.453 49.5982 41.3716 48.9389C36.2338 45.7926 32.6657 42.1422 32.6657 42.1422C32.6657 42.1422 37.4248 43.5966 42.5626 46.7476C43.6485 47.4166 44.6478 48.0953 45.5786 48.7789C44.7664 46.2677 42.7268 41.3617 38.5928 38.8311C32.9257 35.3455 25.4974 37.7307 25.4974 37.7307C25.4974 37.7307 27.2586 45.7635 32.9303 49.2394Z" fill="url(#paint6_radial_460_398)"/>
<path d="M111.07 83.2858C106.945 80.76 101.926 81.3272 99.4754 81.8266C100.493 82.3356 101.551 82.927 102.637 83.5863C107.771 86.7374 111.343 90.383 111.343 90.383C111.343 90.383 106.584 88.9335 101.442 85.7824C100.356 85.1085 99.3567 84.4298 98.4305 83.7463C99.2427 86.2575 101.282 91.1586 105.407 93.6892C111.074 97.1748 118.507 94.7897 118.507 94.7897C118.507 94.7897 116.737 86.7616 111.07 83.2858Z" fill="url(#paint7_radial_460_398)"/>
<path d="M45.5695 83.7608C44.6387 84.4347 43.644 85.1134 42.558 85.7872C37.4202 88.9286 32.6566 90.3975 32.6566 90.3975C32.6566 90.3975 36.2247 86.7423 41.3625 83.5912C42.4531 82.9173 43.5117 82.3501 44.5246 81.8314C42.0789 81.3272 37.0506 80.7503 32.9258 83.2906C27.2541 86.7665 25.4837 94.7945 25.4837 94.7945C25.4837 94.7945 32.9121 97.1796 38.5837 93.7037C42.7177 91.1635 44.7573 86.2623 45.5695 83.7608Z" fill="url(#paint8_radial_460_398)"/>
<path d="M98.4351 48.7595C99.3614 48.0856 100.361 47.4069 101.456 46.7379C106.589 43.5868 111.348 42.1325 111.348 42.1325C111.348 42.1325 107.784 45.7829 102.642 48.9292C101.556 49.5982 100.493 50.1799 99.4891 50.6841C101.93 51.1882 106.959 51.77 111.074 49.2297C116.751 45.749 118.516 37.721 118.516 37.721C118.516 37.721 111.093 35.3407 105.425 38.8214C101.287 41.352 99.2427 46.258 98.4351 48.7595Z" fill="url(#paint9_radial_460_398)"/>
<path d="M49.9225 28.6217C49.0738 27.2982 48.2114 25.8729 47.3673 24.3216C43.3885 17.0111 41.5496 10.2241 41.5496 10.2241C41.5496 10.2241 46.1581 15.3047 50.1324 22.6346C50.9765 24.1762 51.702 25.6839 52.35 27.1334C52.9888 23.6478 53.7143 16.4972 50.5202 10.6217C46.1307 2.54033 36.0012 0.019455 36.0012 0.019455C36.0012 0.019455 32.9942 10.5974 37.3837 18.6739C40.5777 24.5543 46.7741 27.4582 49.9225 28.6217Z" fill="url(#paint10_radial_460_398)"/>
<path d="M94.0867 103.908C94.9354 105.232 95.8069 106.652 96.6464 108.199C100.63 115.538 102.464 122.306 102.464 122.306C102.464 122.306 97.8556 117.221 93.8722 109.9C93.0326 108.349 92.3026 106.841 91.6546 105.402C91.0295 108.887 90.2995 116.023 93.4889 121.904C97.883 129.98 108.008 132.511 108.008 132.511C108.008 132.511 111.029 121.923 106.635 113.846C103.431 107.971 97.2396 105.067 94.0867 103.908Z" fill="url(#paint11_radial_460_398)"/>
<path d="M25.4974 67.9666C17.5443 67.9666 11.0969 66.2602 11.0969 66.2602C11.0969 66.2602 17.5443 64.5537 25.4974 64.5537C27.1857 64.5537 28.7781 64.6507 30.2793 64.767C27.756 62.4401 22.2897 58.1934 15.8925 58.1934C7.1181 58.1982 0 66.2602 0 66.2602C0 66.2602 7.12266 74.3269 15.8925 74.3221C22.2851 74.3221 27.7515 70.0802 30.2747 67.7581C28.7735 67.8793 27.1765 67.9666 25.4974 67.9666Z" fill="url(#paint12_radial_460_398)"/>
<path d="M128.112 58.2128C121.724 58.2128 116.258 62.4401 113.73 64.7767C115.236 64.6555 116.833 64.5634 118.507 64.5683C126.465 64.5683 132.908 66.2699 132.908 66.2699C132.908 66.2699 126.465 67.9763 118.516 67.9763C116.833 67.9763 115.236 67.8842 113.73 67.7678C116.253 70.0899 121.724 74.3318 128.112 74.3318C136.891 74.3318 144 66.2796 144 66.2796C144 66.2796 136.882 58.2031 128.112 58.2128Z" fill="url(#paint13_radial_460_398)"/>
<path d="M50.137 109.905C46.1581 117.225 41.5496 122.311 41.5496 122.311C41.5496 122.311 43.3839 115.524 47.3627 108.204C48.2114 106.662 49.0738 105.242 49.9271 103.904C46.7695 105.067 40.5732 107.976 37.3791 113.856C32.9851 121.933 35.9966 132.52 35.9966 132.52C35.9966 132.52 46.1307 129.999 50.5202 121.923C53.7188 116.043 52.9933 108.887 52.3591 105.411C51.6975 106.846 50.972 108.339 50.137 109.905Z" fill="url(#paint14_radial_460_398)"/>
<path d="M93.8722 22.62C97.8464 15.2998 102.455 10.2192 102.455 10.2192C102.455 10.2192 100.621 17.0013 96.6373 24.3167C95.7977 25.8535 94.9353 27.2884 94.0866 28.6119C97.2396 27.4533 103.436 24.5446 106.625 18.669C111.019 10.5925 108.008 0 108.008 0C108.008 0 97.8829 2.52572 93.4889 10.6022C90.2812 16.4826 91.0112 23.6332 91.6455 27.1139C92.3025 25.6838 93.0235 24.1761 93.8722 22.62Z" fill="url(#paint15_radial_460_398)"/>
<defs>
<radialGradient id="paint0_radial_460_398" cx="0" cy="0" r="1" gradientUnits="userSpaceOnUse" gradientTransform="translate(70.2736 66.9815) rotate(-90.9613) scale(19.0834 60.3704)">
<stop stop-color="#030712"/>
<stop offset="1" stop-color="#9CA3AF"/>
</radialGradient>
<radialGradient id="paint1_radial_460_398" cx="0" cy="0" r="1" gradientUnits="userSpaceOnUse" gradientTransform="translate(59.7721 92.7963) rotate(-90.692) scale(85.5796 194.916)">
<stop stop-color="#030712"/>
<stop offset="1" stop-color="#9CA3AF"/>
</radialGradient>
<radialGradient id="paint2_radial_460_398" cx="0" cy="0" r="1" gradientUnits="userSpaceOnUse" gradientTransform="translate(58.2311 41.3192) rotate(-90.7335) scale(8.14112 19.6529)">
<stop stop-color="#030712"/>
<stop offset="1" stop-color="#9CA3AF"/>
</radialGradient>
<radialGradient id="paint3_radial_460_398" cx="0" cy="0" r="1" gradientUnits="userSpaceOnUse" gradientTransform="translate(98.6432 66.225) rotate(-92.2002) scale(4.59112 33.2147)">
<stop stop-color="#030712"/>
<stop offset="1" stop-color="#9CA3AF"/>
</radialGradient>
<radialGradient id="paint4_radial_460_398" cx="0" cy="0" r="1" gradientUnits="userSpaceOnUse" gradientTransform="translate(85.1538 41.3289) rotate(-90.7339) scale(8.14112 19.6622)">
<stop stop-color="#030712"/>
<stop offset="1" stop-color="#9CA3AF"/>
</radialGradient>
<radialGradient id="paint5_radial_460_398" cx="0" cy="0" r="1" gradientUnits="userSpaceOnUse" gradientTransform="translate(71.4129 21.0304) rotate(-90.5535) scale(20.3357 37.0469)">
<stop stop-color="#030712"/>
<stop offset="1" stop-color="#9CA3AF"/>
</radialGradient>
<radialGradient id="paint6_radial_460_398" cx="0" cy="0" r="1" gradientUnits="userSpaceOnUse" gradientTransform="translate(34.4921 43.9326) rotate(-91.6606) scale(12.0302 65.7187)">
<stop stop-color="#030712"/>
<stop offset="1" stop-color="#9CA3AF"/>
</radialGradient>
<radialGradient id="paint7_radial_460_398" cx="0" cy="0" r="1" gradientUnits="userSpaceOnUse" gradientTransform="translate(107.423 88.3923) rotate(-91.6607) scale(12.0274 65.7038)">
<stop stop-color="#030712"/>
<stop offset="1" stop-color="#9CA3AF"/>
</radialGradient>
<radialGradient id="paint8_radial_460_398" cx="0" cy="0" r="1" gradientUnits="userSpaceOnUse" gradientTransform="translate(34.4805 88.3947) rotate(-91.6604) scale(12.0345 65.7337)">
<stop stop-color="#030712"/>
<stop offset="1" stop-color="#9CA3AF"/>
</radialGradient>
<radialGradient id="paint9_radial_460_398" cx="0" cy="0" r="1" gradientUnits="userSpaceOnUse" gradientTransform="translate(107.43 43.9264) rotate(-91.6603) scale(12.0327 65.7188)">
<stop stop-color="#030712"/>
<stop offset="1" stop-color="#9CA3AF"/>
</radialGradient>
<radialGradient id="paint10_radial_460_398" cx="0" cy="0" r="1" gradientUnits="userSpaceOnUse" gradientTransform="translate(43.0174 14.1219) rotate(-90.735) scale(24.2344 58.6249)">
<stop stop-color="#030712"/>
<stop offset="1" stop-color="#9CA3AF"/>
</radialGradient>
<radialGradient id="paint11_radial_460_398" cx="0" cy="0" r="1" gradientUnits="userSpaceOnUse" gradientTransform="translate(99.1321 118.011) rotate(-90.7352) scale(24.2344 58.6353)">
<stop stop-color="#030712"/>
<stop offset="1" stop-color="#9CA3AF"/>
</radialGradient>
<radialGradient id="paint12_radial_460_398" cx="0" cy="0" r="1" gradientUnits="userSpaceOnUse" gradientTransform="translate(13.5626 66.1457) rotate(-92.2031) scale(13.6747 99.0616)">
<stop stop-color="#030712"/>
<stop offset="1" stop-color="#9CA3AF"/>
</radialGradient>
<radialGradient id="paint13_radial_460_398" cx="0" cy="0" r="1" gradientUnits="userSpaceOnUse" gradientTransform="translate(127.288 66.1603) rotate(-92.2037) scale(13.6665 99.0318)">
<stop stop-color="#030712"/>
<stop offset="1" stop-color="#9CA3AF"/>
</radialGradient>
<radialGradient id="paint14_radial_460_398" cx="0" cy="0" r="1" gradientUnits="userSpaceOnUse" gradientTransform="translate(43.0161 118.013) rotate(-90.7351) scale(24.2467 58.6629)">
<stop stop-color="#030712"/>
<stop offset="1" stop-color="#9CA3AF"/>
</radialGradient>
<radialGradient id="paint15_radial_460_398" cx="0" cy="0" r="1" gradientUnits="userSpaceOnUse" gradientTransform="translate(99.1212 14.1073) rotate(-90.7353) scale(24.2426 58.6664)">
<stop stop-color="#030712"/>
<stop offset="1" stop-color="#9CA3AF"/>
</radialGradient>
</defs>
</svg>
