<svg width="48" height="48" viewBox="0 0 48 48" fill="none" xmlns="http://www.w3.org/2000/svg">
<path d="M25.3179 25.8842C26.7765 25.1457 27.2526 22.9739 26.3856 21.0445C25.5171 19.1086 23.6296 18.1341 22.171 18.8726C20.7124 19.6111 20.2364 21.7829 21.1048 23.7188C21.9733 25.6515 23.8608 26.6259 25.3179 25.8842Z" fill="url(#paint0_radial_460_417)"/>
<path d="M29.6892 14.3318C31.0915 23.6574 24.8449 30.648 24.8449 30.648C24.8449 30.648 19.6949 21.3902 11.0346 18.5963C27.8807 31.6838 18.2926 48 18.2926 48H23.1688C23.1688 48 34.5045 27.2173 29.6892 14.3318Z" fill="url(#paint1_radial_460_417)"/>
<path d="M20.1816 15.3967C20.0873 15.2481 19.9915 15.0897 19.8957 14.9152C19.4501 14.0975 19.2462 13.338 19.2462 13.338C19.2462 13.338 19.7603 13.9101 20.206 14.7229C20.2988 14.8958 20.3794 15.0655 20.4539 15.2271C20.5239 14.8376 20.606 14.0377 20.2501 13.3784C19.7588 12.4751 18.6272 12.1939 18.6272 12.1939C18.6272 12.1939 18.2896 13.3768 18.7808 14.2817C19.1367 14.941 19.8303 15.2658 20.1816 15.3967Z" fill="url(#paint2_radial_460_417)"/>
<path d="M31.3653 22.2564C31.6482 22.5149 32.2596 22.99 32.9729 22.99C33.9555 22.99 34.7494 22.0867 34.7494 22.0867C34.7494 22.0867 33.957 21.185 32.9729 21.185C32.2596 21.185 31.6482 21.6601 31.3653 21.9187C31.5341 21.9057 31.7105 21.896 31.9006 21.896C32.7889 21.896 33.5144 22.0835 33.5144 22.0835C33.5144 22.0835 32.7889 22.2742 31.9006 22.2725C31.709 22.2806 31.5341 22.2693 31.3653 22.2564Z" fill="url(#paint3_radial_460_417)"/>
<path d="M27.7971 14.7261C28.2397 13.9084 28.7568 13.338 28.7568 13.338C28.7568 13.338 28.5515 14.1007 28.1058 14.9184C28.0115 15.0897 27.9157 15.2513 27.8184 15.3999C28.1743 15.2691 28.8663 14.9426 29.2207 14.2882C29.7135 13.3816 29.3789 12.1971 29.3789 12.1971C29.3789 12.1971 28.2442 12.4832 27.7545 13.3832C27.3986 14.0393 27.4777 14.8376 27.5492 15.2319C27.6191 15.0687 27.7013 14.899 27.7971 14.7261Z" fill="url(#paint4_radial_460_417)"/>
<path d="M23.6038 9.80392C23.6038 7.70157 24.0008 5.99998 24.0008 5.99998C24.0008 5.99998 24.3993 7.7048 24.3993 9.80392C24.3993 10.2483 24.3795 10.6684 24.3491 11.066C24.8936 10.3986 25.8868 8.95231 25.8868 7.26527C25.8868 4.94477 24.0008 3.06543 24.0008 3.06543C24.0008 3.06543 22.1148 4.94477 22.1148 7.26527C22.1148 8.95231 23.108 10.397 23.6509 11.066C23.6236 10.6684 23.6038 10.2499 23.6038 9.80392Z" fill="url(#paint5_radial_460_417)"/>
<path d="M10.9768 16.4131C12.3532 17.2567 14.0263 17.0644 14.843 16.8979C14.5054 16.7299 14.151 16.5327 13.7905 16.313C12.0779 15.2642 10.8885 14.0474 10.8885 14.0474C10.8885 14.0474 12.4749 14.5322 14.1875 15.5825C14.5495 15.8055 14.8826 16.0318 15.1929 16.2596C14.9221 15.4226 14.2423 13.7872 12.8643 12.9437C10.9752 11.7818 8.49911 12.5769 8.49911 12.5769C8.49911 12.5769 9.08621 15.2545 10.9768 16.4131Z" fill="url(#paint6_radial_460_417)"/>
<path d="M37.0232 27.7619C35.6483 26.92 33.9752 27.1091 33.1585 27.2755C33.4976 27.4452 33.8505 27.6423 34.2125 27.8621C35.9236 28.9125 37.1145 30.1277 37.1145 30.1277C37.1145 30.1277 35.5281 29.6445 33.814 28.5941C33.452 28.3695 33.1189 28.1433 32.8102 27.9154C33.0809 28.7525 33.7607 30.3862 35.1357 31.2297C37.0247 32.3916 39.5024 31.5965 39.5024 31.5965C39.5024 31.5965 38.9122 28.9205 37.0232 27.7619Z" fill="url(#paint7_radial_460_417)"/>
<path d="M15.1898 27.9203C14.8796 28.1449 14.548 28.3711 14.186 28.5957C12.4734 29.6429 10.8855 30.1325 10.8855 30.1325C10.8855 30.1325 12.0749 28.9141 13.7875 27.8637C14.151 27.6391 14.5039 27.45 14.8415 27.2771C14.0263 27.1091 12.3502 26.9168 10.9753 27.7635C9.0847 28.9222 8.49457 31.5982 8.49457 31.5982C8.49457 31.5982 10.9707 32.3932 12.8612 31.2346C14.2392 30.3878 14.9191 28.7541 15.1898 27.9203Z" fill="url(#paint8_radial_460_417)"/>
<path d="M32.8117 16.2532C33.1204 16.0285 33.4535 15.8023 33.8186 15.5793C35.5296 14.529 37.116 14.0442 37.116 14.0442C37.116 14.0442 35.9281 15.261 34.214 16.3097C33.852 16.5327 33.4976 16.7266 33.163 16.8947C33.9767 17.0628 35.6528 17.2567 37.0247 16.4099C38.9168 15.2497 39.5054 12.5737 39.5054 12.5737C39.5054 12.5737 37.0308 11.7802 35.1418 12.9405C33.7623 13.784 33.0809 15.4193 32.8117 16.2532Z" fill="url(#paint9_radial_460_417)"/>
<path d="M16.6408 9.54055C16.3579 9.0994 16.0705 8.62431 15.7891 8.10721C14.4628 5.67037 13.8499 3.40805 13.8499 3.40805C13.8499 3.40805 15.386 5.10156 16.7108 7.54486C16.9922 8.05873 17.234 8.56129 17.45 9.04446C17.6629 7.88259 17.9047 5.49908 16.8401 3.54055C15.3769 0.846776 12.0004 0.00648499 12.0004 0.00648499C12.0004 0.00648499 10.9981 3.53247 12.4612 6.22464C13.5259 8.18478 15.5914 9.15273 16.6408 9.54055Z" fill="url(#paint10_radial_460_417)"/>
<path d="M31.3622 34.6361C31.6451 35.0773 31.9356 35.5508 32.2155 36.0662C33.5433 38.5128 34.1547 40.7686 34.1547 40.7686C34.1547 40.7686 32.6185 39.0735 31.2907 36.6334C31.0109 36.1163 30.7675 35.6138 30.5515 35.1339C30.3432 36.2957 30.0998 38.6744 31.163 40.6345C32.6277 43.3267 36.0027 44.1702 36.0027 44.1702C36.0027 44.1702 37.0095 40.641 35.5449 37.9488C34.4771 35.9903 32.4132 35.0223 31.3622 34.6361Z" fill="url(#paint11_radial_460_417)"/>
<path d="M8.49913 22.6555C5.84809 22.6555 3.69898 22.0867 3.69898 22.0867C3.69898 22.0867 5.84809 21.5179 8.49913 21.5179C9.06188 21.5179 9.5927 21.5502 10.0931 21.589C9.252 20.8133 7.42989 19.3978 5.29751 19.3978C2.3727 19.3994 0 22.0867 0 22.0867C0 22.0867 2.37422 24.7756 5.29751 24.774C7.42837 24.774 9.25048 23.3601 10.0916 22.586C9.59118 22.6264 9.05884 22.6555 8.49913 22.6555Z" fill="url(#paint12_radial_460_417)"/>
<path d="M42.704 19.4043C40.5747 19.4043 38.7526 20.8134 37.9099 21.5922C38.4119 21.5518 38.9442 21.5211 39.5024 21.5228C42.1549 21.5228 44.3025 22.09 44.3025 22.09C44.3025 22.09 42.1549 22.6588 39.5054 22.6588C38.9442 22.6588 38.4119 22.6281 37.9099 22.5893C38.751 23.3633 40.5747 24.7773 42.704 24.7773C45.6303 24.7773 48 22.0932 48 22.0932C48 22.0932 45.6273 19.401 42.704 19.4043Z" fill="url(#paint13_radial_460_417)"/>
<path d="M16.7123 36.6351C15.386 39.0751 13.8499 40.7703 13.8499 40.7703C13.8499 40.7703 14.4613 38.5079 15.7876 36.0679C16.0705 35.554 16.3579 35.0805 16.6423 34.6345C15.5898 35.0223 13.5244 35.9919 12.4597 37.9521C10.995 40.6442 11.9989 44.1734 11.9989 44.1734C11.9989 44.1734 15.3769 43.3331 16.8401 40.641C17.9063 38.6808 17.6644 36.2957 17.453 35.1371C17.2325 35.6154 16.9906 36.1131 16.7123 36.6351Z" fill="url(#paint14_radial_460_417)"/>
<path d="M31.2907 7.53999C32.6155 5.09992 34.1517 3.40641 34.1517 3.40641C34.1517 3.40641 33.5402 5.66712 32.2124 8.10557C31.9326 8.61783 31.6451 9.09615 31.3622 9.5373C32.4132 9.15109 34.4787 8.18152 35.5418 6.223C37.0065 3.53084 36.0027 0 36.0027 0C36.0027 0 32.6277 0.841907 31.163 3.53407C30.0937 5.49421 30.3371 7.87773 30.5485 9.03797C30.7675 8.56127 31.0078 8.05871 31.2907 7.53999Z" fill="url(#paint15_radial_460_417)"/>
<defs>
<radialGradient id="paint0_radial_460_417" cx="0" cy="0" r="1" gradientUnits="userSpaceOnUse" gradientTransform="translate(23.4245 22.3272) rotate(-90.9613) scale(6.36114 20.1235)">
<stop stop-color="#030712"/>
<stop offset="1" stop-color="#9CA3AF"/>
</radialGradient>
<radialGradient id="paint1_radial_460_417" cx="0" cy="0" r="1" gradientUnits="userSpaceOnUse" gradientTransform="translate(19.924 30.9321) rotate(-90.692) scale(28.5265 64.9721)">
<stop stop-color="#030712"/>
<stop offset="1" stop-color="#9CA3AF"/>
</radialGradient>
<radialGradient id="paint2_radial_460_417" cx="0" cy="0" r="1" gradientUnits="userSpaceOnUse" gradientTransform="translate(19.4104 13.7731) rotate(-90.7335) scale(2.71371 6.55098)">
<stop stop-color="#030712"/>
<stop offset="1" stop-color="#9CA3AF"/>
</radialGradient>
<radialGradient id="paint3_radial_460_417" cx="0" cy="0" r="1" gradientUnits="userSpaceOnUse" gradientTransform="translate(32.8811 22.075) rotate(-92.2002) scale(1.53037 11.0716)">
<stop stop-color="#030712"/>
<stop offset="1" stop-color="#9CA3AF"/>
</radialGradient>
<radialGradient id="paint4_radial_460_417" cx="0" cy="0" r="1" gradientUnits="userSpaceOnUse" gradientTransform="translate(28.3846 13.7763) rotate(-90.7339) scale(2.71371 6.55406)">
<stop stop-color="#030712"/>
<stop offset="1" stop-color="#9CA3AF"/>
</radialGradient>
<radialGradient id="paint5_radial_460_417" cx="0" cy="0" r="1" gradientUnits="userSpaceOnUse" gradientTransform="translate(23.8043 7.01014) rotate(-90.5535) scale(6.77855 12.349)">
<stop stop-color="#030712"/>
<stop offset="1" stop-color="#9CA3AF"/>
</radialGradient>
<radialGradient id="paint6_radial_460_417" cx="0" cy="0" r="1" gradientUnits="userSpaceOnUse" gradientTransform="translate(11.4974 14.6442) rotate(-91.6606) scale(4.01007 21.9062)">
<stop stop-color="#030712"/>
<stop offset="1" stop-color="#9CA3AF"/>
</radialGradient>
<radialGradient id="paint7_radial_460_417" cx="0" cy="0" r="1" gradientUnits="userSpaceOnUse" gradientTransform="translate(35.8077 29.4641) rotate(-91.6607) scale(4.00913 21.9013)">
<stop stop-color="#030712"/>
<stop offset="1" stop-color="#9CA3AF"/>
</radialGradient>
<radialGradient id="paint8_radial_460_417" cx="0" cy="0" r="1" gradientUnits="userSpaceOnUse" gradientTransform="translate(11.4935 29.4649) rotate(-91.6604) scale(4.0115 21.9112)">
<stop stop-color="#030712"/>
<stop offset="1" stop-color="#9CA3AF"/>
</radialGradient>
<radialGradient id="paint9_radial_460_417" cx="0" cy="0" r="1" gradientUnits="userSpaceOnUse" gradientTransform="translate(35.8099 14.6422) rotate(-91.6603) scale(4.01091 21.9063)">
<stop stop-color="#030712"/>
<stop offset="1" stop-color="#9CA3AF"/>
</radialGradient>
<radialGradient id="paint10_radial_460_417" cx="0" cy="0" r="1" gradientUnits="userSpaceOnUse" gradientTransform="translate(14.3391 4.70731) rotate(-90.735) scale(8.07814 19.5416)">
<stop stop-color="#030712"/>
<stop offset="1" stop-color="#9CA3AF"/>
</radialGradient>
<radialGradient id="paint11_radial_460_417" cx="0" cy="0" r="1" gradientUnits="userSpaceOnUse" gradientTransform="translate(33.0441 39.337) rotate(-90.7352) scale(8.07814 19.5451)">
<stop stop-color="#030712"/>
<stop offset="1" stop-color="#9CA3AF"/>
</radialGradient>
<radialGradient id="paint12_radial_460_417" cx="0" cy="0" r="1" gradientUnits="userSpaceOnUse" gradientTransform="translate(4.52087 22.0486) rotate(-92.2031) scale(4.55824 33.0205)">
<stop stop-color="#030712"/>
<stop offset="1" stop-color="#9CA3AF"/>
</radialGradient>
<radialGradient id="paint13_radial_460_417" cx="0" cy="0" r="1" gradientUnits="userSpaceOnUse" gradientTransform="translate(42.4294 22.0534) rotate(-92.2037) scale(4.55551 33.0106)">
<stop stop-color="#030712"/>
<stop offset="1" stop-color="#9CA3AF"/>
</radialGradient>
<radialGradient id="paint14_radial_460_417" cx="0" cy="0" r="1" gradientUnits="userSpaceOnUse" gradientTransform="translate(14.3387 39.3377) rotate(-90.7351) scale(8.08225 19.5543)">
<stop stop-color="#030712"/>
<stop offset="1" stop-color="#9CA3AF"/>
</radialGradient>
<radialGradient id="paint15_radial_460_417" cx="0" cy="0" r="1" gradientUnits="userSpaceOnUse" gradientTransform="translate(33.0404 4.70242) rotate(-90.7353) scale(8.08088 19.5555)">
<stop stop-color="#030712"/>
<stop offset="1" stop-color="#9CA3AF"/>
</radialGradient>
</defs>
</svg>
