<svg width="355" height="335" viewBox="0 0 355 335" fill="none" xmlns="http://www.w3.org/2000/svg">
<path d="M187.247 180.183C198.035 175.042 201.555 159.924 195.144 146.493C188.721 133.017 174.761 126.234 163.973 131.374C153.186 136.515 149.665 151.633 156.088 165.109C162.511 178.563 176.471 185.346 187.247 180.183Z" fill="black"/>
<path d="M219.576 99.7654C229.947 164.682 183.749 213.344 183.749 213.344C183.749 213.344 145.66 148.9 81.6099 129.451C206.201 220.555 135.289 334.134 135.289 334.134H171.353C171.353 334.134 255.19 189.463 219.576 99.7654Z" fill="black"/>
<path d="M149.26 107.178C148.563 106.143 147.854 105.041 147.145 103.826C143.849 98.1343 142.342 92.8474 142.342 92.8474C142.342 92.8474 146.144 96.8294 149.44 102.488C150.126 103.691 150.722 104.872 151.273 105.997C151.791 103.286 152.398 97.7181 149.766 93.1286C146.133 86.8405 137.764 84.8832 137.764 84.8832C137.764 84.8832 135.266 93.1173 138.9 99.4166C141.532 104.006 146.661 106.267 149.26 107.178Z" fill="black"/>
<path d="M231.972 154.929C234.064 156.729 238.586 160.036 243.862 160.036C251.129 160.036 257.001 153.748 257.001 153.748C257.001 153.748 251.14 147.471 243.862 147.471C238.586 147.471 234.064 150.779 231.972 152.578C233.221 152.488 234.526 152.421 235.932 152.421C242.501 152.421 247.867 153.726 247.867 153.726C247.867 153.726 242.501 155.053 235.932 155.042C234.514 155.098 233.221 155.019 231.972 154.929Z" fill="black"/>
<path d="M205.583 102.51C208.856 96.8182 212.681 92.8474 212.681 92.8474C212.681 92.8474 211.162 98.1568 207.866 103.849C207.169 105.041 206.46 106.166 205.74 107.201C208.372 106.29 213.49 104.017 216.111 99.4616C219.756 93.1511 217.281 84.9057 217.281 84.9057C217.281 84.9057 208.89 86.8968 205.268 93.1623C202.635 97.7293 203.22 103.286 203.749 106.031C204.266 104.895 204.874 103.714 205.583 102.51Z" fill="black"/>
<path d="M174.57 68.2463C174.57 53.6116 177.506 41.7667 177.506 41.7667C177.506 41.7667 180.453 53.6341 180.453 68.2463C180.453 71.3397 180.307 74.2644 180.082 77.0316C184.109 72.3858 191.454 62.3182 191.454 50.5745C191.454 34.4212 177.506 21.3389 177.506 21.3389C177.506 21.3389 163.557 34.4212 163.557 50.5745C163.557 62.3182 170.903 72.3746 174.918 77.0316C174.716 74.2644 174.57 71.351 174.57 68.2463Z" fill="black"/>
<path d="M81.1824 114.254C91.3625 120.126 103.736 118.787 109.777 117.628C107.28 116.459 104.659 115.086 101.993 113.556C89.3265 106.256 80.5299 97.7856 80.5299 97.7856C80.5299 97.7856 92.2624 101.16 104.929 108.472C107.606 110.024 110.069 111.599 112.364 113.185C110.362 107.358 105.333 95.9745 95.1421 90.1027C81.1711 82.0148 62.8581 87.5492 62.8581 87.5492C62.8581 87.5492 67.2002 106.188 81.1824 114.254Z" fill="black"/>
<path d="M273.818 193.254C263.649 187.393 251.275 188.709 245.234 189.868C247.743 191.049 250.353 192.422 253.03 193.951C265.685 201.263 274.493 209.722 274.493 209.722C274.493 209.722 262.76 206.359 250.083 199.047C247.405 197.483 244.942 195.909 242.659 194.323C244.661 200.149 249.689 211.522 259.858 217.394C273.829 225.482 292.153 219.947 292.153 219.947C292.153 219.947 287.789 201.319 273.818 193.254Z" fill="black"/>
<path d="M112.342 194.356C110.047 195.92 107.595 197.495 104.917 199.058C92.2512 206.347 80.5075 209.756 80.5075 209.756C80.5075 209.756 89.304 201.274 101.97 193.963C104.659 192.399 107.268 191.083 109.766 189.879C103.736 188.709 91.34 187.371 81.1712 193.265C67.1889 201.331 62.8244 219.958 62.8244 219.958C62.8244 219.958 81.1374 225.493 95.1196 217.428C105.311 211.533 110.339 200.161 112.342 194.356Z" fill="black"/>
<path d="M242.67 113.14C244.953 111.577 247.417 110.002 250.116 108.449C262.771 101.138 274.504 97.7631 274.504 97.7631C274.504 97.7631 265.719 106.233 253.041 113.534C250.364 115.086 247.743 116.436 245.268 117.606C251.286 118.776 263.682 120.126 273.829 114.231C287.822 106.155 292.176 87.5267 292.176 87.5267C292.176 87.5267 273.874 82.0036 259.903 90.0802C249.7 95.952 244.661 107.336 242.67 113.14Z" fill="black"/>
<path d="M123.073 66.4127C120.981 63.3418 118.855 60.0347 116.774 56.4351C106.965 39.4719 102.431 23.7237 102.431 23.7237C102.431 23.7237 113.793 35.5124 123.59 52.5205C125.671 56.0976 127.46 59.596 129.057 62.9594C130.632 54.8715 132.421 38.2796 124.546 24.6461C113.725 5.89435 88.7528 0.0449944 88.7528 0.0449944C88.7528 0.0449944 81.3399 24.5898 92.1612 43.3303C100.035 56.975 115.311 63.713 123.073 66.4127Z" fill="black"/>
<path d="M231.95 241.106C234.042 244.177 236.19 247.473 238.26 251.061C248.08 268.092 252.602 283.795 252.602 283.795C252.602 283.795 241.241 271.995 231.421 255.01C229.351 251.41 227.551 247.912 225.954 244.571C224.413 252.659 222.613 269.217 230.476 282.862C241.309 301.602 266.27 307.474 266.27 307.474C266.27 307.474 273.716 282.907 262.884 264.166C254.987 250.533 239.723 243.795 231.95 241.106Z" fill="black"/>
<path d="M62.8581 157.708C43.2515 157.708 27.357 153.748 27.357 153.748C27.357 153.748 43.2515 149.789 62.8581 149.789C67.0202 149.789 70.946 150.014 74.6469 150.284C68.4263 144.884 54.9502 135.03 39.1795 135.03C17.5481 135.042 0 153.748 0 153.748C0 153.748 17.5593 172.466 39.1795 172.455C54.939 172.455 68.415 162.612 74.6356 157.224C70.9348 157.505 66.9977 157.708 62.8581 157.708Z" fill="black"/>
<path d="M315.832 135.075C300.083 135.075 286.607 144.884 280.376 150.306C284.088 150.025 288.025 149.811 292.153 149.822C311.771 149.822 327.654 153.771 327.654 153.771C327.654 153.771 311.771 157.73 292.176 157.73C288.025 157.73 284.088 157.517 280.376 157.247C286.596 162.635 300.083 172.477 315.832 172.477C337.474 172.477 355 153.793 355 153.793C355 153.793 337.452 135.053 315.832 135.075Z" fill="black"/>
<path d="M123.602 255.021C113.793 272.007 102.431 283.807 102.431 283.807C102.431 283.807 106.953 268.058 116.762 251.073C118.855 247.496 120.981 244.2 123.084 241.095C115.3 243.795 100.024 250.544 92.15 264.189C81.3174 282.929 88.7416 307.496 88.7416 307.496C88.7416 307.496 113.725 301.647 124.546 282.907C132.432 269.262 130.643 252.659 129.08 244.593C127.449 247.923 125.66 251.388 123.602 255.021Z" fill="black"/>
<path d="M231.421 52.4868C241.219 35.5011 252.58 23.7124 252.58 23.7124C252.58 23.7124 248.058 39.4494 238.238 56.4238C236.168 59.9897 234.042 63.3193 231.95 66.3903C239.723 63.7018 254.998 56.9525 262.861 43.319C273.694 24.5786 266.27 0 266.27 0C266.27 0 241.309 5.86061 230.476 24.6011C222.568 38.2458 224.368 54.8378 225.932 62.9144C227.551 59.596 229.329 56.0976 231.421 52.4868Z" fill="black"/>
</svg>
